<svg data-v-0dd9719b="" version="1.0" xmlns="http://www.w3.org/2000/svg" xmlns:xlink="http://www.w3.org/1999/xlink" width="100%" height="100%" viewBox="0 0 340.000000 250.000000" preserveAspectRatio="xMidYMid meet" color-interpolation-filters="sRGB" style="margin: auto;"> <rect data-v-0dd9719b="" x="0" y="0" width="100%" height="100%" fill="#fff" fill-opacity="1" class="background"></rect> <rect data-v-0dd9719b="" x="0" y="0" width="100%" height="100%" fill="url(#watermark)" fill-opacity="1" class="watermarklayer"></rect> <g data-v-0dd9719b="" fill="#231815" class="icon-text-wrapper icon-svg-group iconsvg" transform="translate(48.730003356933594,89.20133209228516)"><g class="iconsvg-imagesvg" transform="translate(0,0)"><g><rect fill="#231815" fill-opacity="0" stroke-width="2" x="0" y="0" width="60" height="71.59733657907925" class="image-rect"></rect> <svg x="0" y="0" width="60" height="71.59733657907925" filtersec="colorsb4900266640" class="image-svg-svg primary" style="overflow: visible;"><svg xmlns="http://www.w3.org/2000/svg" viewBox="0 0 28.040000915527344 33.459999084472656"><g style="isolation:isolate"><g><path d="M0 0h8.55v12.57h10.94V0H28v33.46h-8.51V20.08H8.55v13.38H0z" fill="#231815"></path><path fill="#00b2b3" d="M19.49 20.08h8.55v13.38h-8.55z"></path><path fill="#e6003e" d="M0 0h8.55v12.57H0z"></path><path fill="#dcdddd" style="mix-blend-mode:multiply" d="M19.49 20.08h8.55v3.86h-8.55zM0 8.71h8.55v3.86H0z"></path></g></g></svg></svg> <!----></g></g> <g transform="translate(67,24.263668060302734)"><g data-gra="path-name" fill-rule="" class="tp-name iconsvg-namesvg"><g transform="scale(1)"><g><path d="M5.57 3.65L5.57 3.65 3.03 3.65 3.03-16.03 2.05-16.03 2.05-18.6 5.57-18.6 5.57 3.65ZM18.5 3.65L18.5 3.65 15.96 3.65 15.96-18.6 18.5-18.6 18.5 3.65ZM17.23-6.64L17.23-6.64 3.26-6.64 3.26-9.22 17.23-9.22 17.23-6.64ZM36.55 3.65L36.55 3.65 27.75-7.69 29.8-9.25 38.57 2.08 36.55 3.65ZM26.91-4.23L26.91-4.23 25.02-5.96 36.51-18.66 38.4-16.97 26.91-4.23ZM26.94 3.65L26.94 3.65 24.4 3.65 24.4-15.99 23.68-15.99 23.68-18.57 26.94-18.57 26.94 3.65ZM71.47-18.66L71.47 3.75 68.89 3.75 68.89-16.09 68.73-16.09 63.58-2.74 61.3-2.74 56.19-16.09 55.99-16.09 55.99 3.75 53.45 3.75 53.45-16.09 52.74-16.09 52.74-18.66 57.95-18.66 62.44-6.87 66.97-18.66 71.47-18.66ZM80.33 3.65L80.33 3.65 77.75 3.65 77.75-18.6 80.33-18.6 80.33 3.65ZM89.41 3.62L89.41 3.62 86.84 3.62 86.84-17.52 89.41-17.52 89.41 3.62ZM102.25 3.58L102.25 3.58 99.87 3.58 89.25-16.25 86.12-16.25 86.12-18.79 90.78-18.79 99.67-2.21 99.67-19.06 102.25-19.06 102.25 3.58ZM115.96 3.26L115.96 3.26Q114.01 3.26 112.28 2.39 110.55 1.53 109.27 0.02 107.98-1.5 107.23-3.5 106.48-5.5 106.48-7.82L106.48-7.82Q106.48-10.1 107.23-12.12 107.98-14.14 109.27-15.64 110.55-17.13 112.28-18.01 114.01-18.89 115.96-18.89L115.96-18.89Q118.24-18.89 120.21-17.75 122.18-16.61 123.55-14.5L123.55-14.5 121.4-13.09Q120.39-14.66 118.99-15.49 117.59-16.32 115.96-16.32L115.96-16.32Q114.53-16.32 113.27-15.65 112.02-14.98 111.07-13.83 110.13-12.67 109.59-11.12 109.06-9.58 109.06-7.82L109.06-7.82Q109.06-6.06 109.59-4.51 110.13-2.96 111.07-1.79 112.02-0.62 113.27 0.05 114.53 0.72 115.96 0.72L115.96 0.72Q117.49 0.72 118.84-0.05 120.2-0.81 121.21-2.21L121.21-2.21 121.21-6.55 114.04-6.55 114.04-9.09 123.75-9.09 123.75-1.47 123.55-1.14Q122.18 0.98 120.21 2.12 118.24 3.26 115.96 3.26ZM130 4.01L130 4.01 128.4 2.02Q128.89 1.63 129.45 1.09 130 0.55 130.47-0.02 130.94-0.59 131.25-1.16 131.56-1.73 131.56-2.15L131.56-2.15 131.56-15.99 130.23-15.99 130.23-18.57 134.1-18.57 134.1-2.15Q134.1-1.11 133.57-0.1 133.03 0.91 132.31 1.76 131.6 2.61 130.93 3.21 130.26 3.81 130 4.01ZM149.12 3.65L149.12 3.65Q147.46 3.65 145.98 3.11 144.5 2.57 143.39 1.64 142.28 0.72 141.64-0.54 141.01-1.79 141.01-3.22L141.01-3.22 141.01-16.12 140.16-16.12 140.16-18.7 143.58-18.7 143.58-3.22Q143.58-2.35 144.02-1.55 144.46-0.75 145.21-0.16 145.96 0.42 146.97 0.77 147.98 1.11 149.12 1.11L149.12 1.11Q150.26 1.11 151.27 0.77 152.28 0.42 153.03-0.16 153.78-0.75 154.22-1.55 154.66-2.35 154.66-3.22L154.66-3.22 154.66-18.73 157.2-18.73 157.2-3.22Q157.2-1.79 156.56-0.54 155.93 0.72 154.84 1.64 153.75 2.57 152.26 3.11 150.78 3.65 149.12 3.65ZM164.76 3.62L164.76 3.62 162.18 3.62 162.18-17.52 164.76-17.52 164.76 3.62ZM177.59 3.58L177.59 3.58 175.21 3.58 164.59-16.25 161.47-16.25 161.47-18.79 166.12-18.79 175.02-2.21 175.02-19.06 177.59-19.06 177.59 3.58Z" transform="translate(-2.049999952316284, 19.059999465942383)"></path></g> <!----> <!----> <!----> <!----> <!----> <!----> <!----></g></g> <!----></g></g><defs v-gra="od"></defs></svg>